<?xml version="1.0" encoding="UTF-8"?>
<svg id="Layer_1" data-name="Layer 1" xmlns="http://www.w3.org/2000/svg" viewBox="0 0 1024 1024">
  <defs>
    <style>
      .cls-1 {
        letter-spacing: -.05em;
      }

      .cls-2 {
        fill: #eee;
      }

      .cls-3 {
        letter-spacing: -.06em;
      }

      .cls-4 {
        fill: #dd3700;
        font-family: PermanentMarker-Regular, 'Permanent Marker';
        font-size: 400px;
      }
    </style>
  </defs>
  <rect width="1024" height="1024" rx="128" ry="128"/>
  <g>
    <path class="cls-2" d="M121,792c-5.88,0-10.68-1.86-14.4-5.6-3.74-3.73-5.6-8.53-5.6-14.4V252c0-5.86,1.86-10.66,5.6-14.4,3.73-3.73,8.53-5.6,14.4-5.6h362.4c5.86,0,10.66,1.88,14.4,5.6,3.72,3.74,5.6,8.54,5.6,14.4v64c0,5.34-1.88,9.88-5.6,13.6-3.74,3.74-8.54,5.6-14.4,5.6H224.2v125.6h241.6c5.86,0,10.66,1.88,14.4,5.6,3.72,3.74,5.6,8.54,5.6,14.4v59.2c0,5.34-1.88,9.88-5.6,13.6-3.74,3.74-8.54,5.6-14.4,5.6h-241.6v129.6h265.6c5.86,0,10.66,1.88,14.4,5.6,3.72,3.74,5.6,8.54,5.6,14.4v63.2c0,5.88-1.88,10.67-5.6,14.4-3.74,3.74-8.54,5.6-14.4,5.6H121Z"/>
    <path class="cls-2" d="M561.24,624c-3.74,0-7-1.3-9.8-3.92-2.8-2.61-4.2-5.97-4.2-10.08V246c0-4.1,1.4-7.46,4.2-10.08,2.8-2.61,6.06-3.92,9.8-3.92h52.08c5.6,0,9.8,1.5,12.6,4.48,2.8,2.99,4.76,5.23,5.88,6.72l103.04,189.84,104.16-189.84c.74-1.49,2.52-3.73,5.32-6.72,2.8-2.98,7-4.48,12.6-4.48h52.08c4.1,0,7.46,1.31,10.08,3.92,2.61,2.62,3.92,5.98,3.92,10.08v364c0,4.11-1.31,7.47-3.92,10.08s-5.98,3.92-10.08,3.92h-57.12c-3.74,0-6.91-1.3-9.52-3.92-2.62-2.61-3.92-5.97-3.92-10.08v-226.24l-71.12,133.28c-1.87,3.36-4.3,6.35-7.28,8.96-2.99,2.62-6.91,3.92-11.76,3.92h-26.32c-4.86,0-8.78-1.3-11.76-3.92-2.99-2.61-5.42-5.6-7.28-8.96l-71.12-133.28v226.24c0,4.11-1.31,7.47-3.92,10.08s-5.79,3.92-9.52,3.92h-57.12Z"/>
  </g>
  <text class="cls-4" transform="translate(518.08 865.58) rotate(-10)"><tspan class="cls-3" x="0" y="0">V</tspan><tspan class="cls-1" x="209.69" y="0">P</tspan></text>
</svg>