<?xml version="1.0" encoding="UTF-8"?>
<svg id="Layer_1" data-name="Layer 1" xmlns="http://www.w3.org/2000/svg" viewBox="0 0 1024 1024">
  <defs>
    <style>
      .cls-1 {
        fill: #323230;
      }

      .cls-2 {
        fill: #eee;
      }

      .cls-3 {
        fill: #dd3700;
      }
    </style>
  </defs>
  <rect class="cls-1" width="1024" height="1024" rx="128" ry="128"/>
  <g>
    <path class="cls-2" d="M121,792c-5.88,0-10.68-1.86-14.4-5.6-3.74-3.73-5.6-8.53-5.6-14.4V252c0-5.86,1.86-10.66,5.6-14.4,3.73-3.73,8.53-5.6,14.4-5.6h362.4c5.86,0,10.66,1.88,14.4,5.6,3.72,3.74,5.6,8.54,5.6,14.4v64c0,5.34-1.88,9.88-5.6,13.6-3.74,3.74-8.54,5.6-14.4,5.6H224.2v125.6h241.6c5.86,0,10.66,1.88,14.4,5.6,3.72,3.74,5.6,8.54,5.6,14.4v59.2c0,5.34-1.88,9.88-5.6,13.6-3.74,3.74-8.54,5.6-14.4,5.6h-241.6v129.6h265.6c5.86,0,10.66,1.88,14.4,5.6,3.72,3.74,5.6,8.54,5.6,14.4v63.2c0,5.88-1.88,10.67-5.6,14.4-3.74,3.74-8.54,5.6-14.4,5.6H121Z"/>
    <path class="cls-2" d="M561.24,624c-3.74,0-7-1.3-9.8-3.92-2.8-2.61-4.2-5.97-4.2-10.08V246c0-4.1,1.4-7.46,4.2-10.08,2.8-2.61,6.06-3.92,9.8-3.92h52.08c5.6,0,9.8,1.5,12.6,4.48,2.8,2.99,4.76,5.23,5.88,6.72l103.04,189.84,104.16-189.84c.74-1.49,2.52-3.73,5.32-6.72,2.8-2.98,7-4.48,12.6-4.48h52.08c4.1,0,7.46,1.31,10.08,3.92,2.61,2.62,3.92,5.98,3.92,10.08v364c0,4.11-1.31,7.47-3.92,10.08s-5.98,3.92-10.08,3.92h-57.12c-3.74,0-6.91-1.3-9.52-3.92-2.62-2.61-3.92-5.97-3.92-10.08v-226.24l-71.12,133.28c-1.87,3.36-4.3,6.35-7.28,8.96-2.99,2.62-6.91,3.92-11.76,3.92h-26.32c-4.86,0-8.78-1.3-11.76-3.92-2.99-2.61-5.42-5.6-7.28-8.96l-71.12-133.28v226.24c0,4.11-1.31,7.47-3.92,10.08s-5.79,3.92-9.52,3.92h-57.12Z"/>
  </g>
  <g>
    <path class="cls-3" d="M522.97,715.58c-2.55-6.95-4.25-14.32-5.09-22.11-.85-7.78-1.9-15.26-3.17-22.45-1.22-6.92-2.97-14.21-5.25-21.88-2.28-7.66-4.37-15.03-6.28-22.1-1.91-7.06-3.33-13.62-4.26-19.68-.94-6.04-.93-10.88.03-14.48,1.37-4.21,3.41-7.67,6.1-10.4,2.69-2.72,5.2-5.74,7.53-9.06,3.42-.07,6.61.36,9.55,1.29,2.94.94,5.57,2.33,7.87,4.17,2.31,1.84,4.11,3.84,5.42,5.99,1.3,2.15,1.9,4.42,1.8,6.82,7.09,2.72,13.19,6.99,18.33,12.83,5.13,5.84,9.47,12.48,13.03,19.91,3.55,7.44,6.55,15.44,8.99,24,2.43,8.56,4.72,17.02,6.85,25.37,2.13,8.35,4.19,16.26,6.16,23.7,1.97,7.46,4.36,13.85,7.15,19.17,8.39-18.4,15.37-34.64,20.96-48.72,5.58-14.07,11.32-27.64,17.21-40.72,5.89-13.07,12.71-26.5,20.46-40.3,7.75-13.79,17.98-29.61,30.7-47.46,3.42-.07,6.1.11,8.03.57,1.93.45,3.86.91,5.79,1.36,1.93.45,3.95.69,6.08.71,2.12.02,4.92-.53,8.43-1.68,1.82,2.85,3.18,4.93,4.07,6.22.89,1.3,1.7,2.55,2.44,3.73.74,1.2,1.67,2.75,2.8,4.66,1.13,1.92,2.83,4.79,5.09,8.62.95.89,1.51,2.18,1.67,3.87.16,1.69.23,3.2.2,4.53-.03,1.33.08,2.37.35,3.11.26.75,1.1.6,2.5-.44-.26,4.54-1.23,8.75-2.93,12.62-1.7,3.87-1.99,8.22-.87,13.04-5.3,10.45-11.32,21.3-18.06,32.54-6.74,11.24-13.41,22.93-20,35.06-6.59,12.14-12.79,24.6-18.59,37.39-5.81,12.79-10.28,26.08-13.4,39.85-1.54.27-2.62.86-3.26,1.76s-1.19,1.93-1.64,3.07c-.46,1.14-.92,2.28-1.38,3.42-.46,1.14-1.46,1.84-3,2.12.93,8.3-.71,16.59-4.94,24.87-4.23,8.28-8.71,15.49-13.44,21.61.87,1.97,1.42,3.58,1.65,4.87.23,1.29.32,2.59.29,3.92-.03,1.33.01,2.71.14,4.14.12,1.44.49,3.16,1.11,5.16-1.22,6.56-3.34,12.23-6.33,16.98-3,4.76-6.49,8.55-10.49,11.37-4,2.82-8.34,4.45-13.02,4.88-4.68.43-9.33-.41-13.93-2.5-1.98-.7-3.77-1.85-5.36-3.42-1.6-1.56-3.25-3.06-4.96-4.48-1.71-1.42-3.39-2.71-5.05-3.87-1.66-1.16-3.56-1.81-5.7-1.97.06-2.65-.35-5.35-1.23-8.11-.88-2.75-1.91-5.22-3.09-7.39-1.18-2.17-2.42-3.94-3.71-5.29-1.3-1.36-2.46-1.95-3.48-1.77-2.16-6.23-4.74-12.98-7.74-20.25-3-7.27-5.99-14.47-8.97-21.62-2.98-7.14-5.62-14.21-7.91-21.22-2.29-7-3.85-13.6-4.68-19.8-.29-3.12-1.35-5.77-3.19-7.97-1.84-2.19-3.31-4.9-4.41-8.15Z"/>
    <path class="cls-3" d="M722.77,717.63c.07-1.07.57-1.62,1.49-1.65.92-.03,1.74-.24,2.47-.63-2.42-1.69-4.18-4.22-5.31-7.59-1.13-3.37-2.92-6.03-5.37-7.98.29-1.37.51-2.73.67-4.08.16-1.35,1.16-2.05,3-2.12-1.76-5.5-2.57-10.78-2.4-15.84.16-5.05.95-9.95,2.37-14.7,1.41-4.74,3.22-9.49,5.42-14.24,2.2-4.75,4.33-9.55,6.38-14.41,2.22-.92,3.66-.97,4.33-.17.67.81,1.53.46,2.59-1.05,3.6-3.54,5.87-7.18,6.8-10.92.93-3.73,1.03-7.65.31-11.76,1.13-7.07,2.59-14.14,4.39-21.2,1.79-7.06,4.12-13.75,6.97-20.07,2.85-6.32,6.08-11.98,9.7-16.98,3.61-5,7.78-9.11,12.5-12.32,3.05-3.71,7.1-7.33,12.16-10.87,5.06-3.53,10.61-6.56,16.64-9.08,6.03-2.51,12.37-4.42,19.02-5.73,6.64-1.3,12.92-1.68,18.84-1.14,1.37.29,2.08-.17,2.14-1.37.05-1.2.59-1.89,1.62-2.07,13.09-.72,25.02-.18,35.79,1.62,10.76,1.81,20.3,5.28,28.61,10.42,6.22,6.84,12.3,14.29,18.22,22.37,5.92,8.08,10.94,16.71,15.08,25.9,4.13,9.19,6.97,18.94,8.53,29.24,1.55,10.31,1.18,20.95-1.11,31.93-6.99,12.87-16.29,23.83-27.92,32.89-11.63,9.06-24.42,17.13-38.37,24.22-13.96,7.09-28.57,13.44-43.84,19.04-15.27,5.61-30.06,11.39-44.34,17.34,1.47,6.88,2.77,14.25,3.9,22.12,1.12,7.87,1.66,15.84,1.64,23.91-.03,8.08-.74,16.06-2.12,23.97-1.38,7.92-3.81,15.49-7.3,22.71-5.18.65-10.41,2.09-15.69,4.35-5.29,2.25-10,4.4-14.13,6.46-2.28-.92-4.48-1.79-6.61-2.6-2.13-.81-4.63-1.11-7.49-.86.23-3.21-1.05-6.29-3.81-9.24-2.77-2.95-5.53-5.83-8.27-8.66-2.75-2.82-4.72-5.77-5.93-8.87-1.21-3.09-.25-6.23,2.9-9.43-2.37-1.43-3.89-4.07-4.57-7.92,1.2.85,2.58,1.13,4.12.86-1.33-4.53-1.73-10.14-1.19-16.85.53-6.7.83-13.3.87-19.79.05-6.49-.78-12.29-2.48-17.41-1.7-5.12-5.44-8.36-11.23-9.72ZM806.92,609.98c-.53,3.01-.92,5.65-1.18,7.94-.26,2.3-.61,4.41-1.06,6.34-.45,1.93-.97,3.88-1.55,5.83-.59,1.96-1.19,4.18-1.8,6.66.78,1.45,2.01,2.42,3.69,2.92,1.67.5,2.9,1.47,3.69,2.92,3.27-2.42,6.62-4.4,10.06-5.94,3.43-1.53,6.9-2.86,10.4-4.01,3.5-1.14,6.97-2.42,10.43-3.82,3.45-1.4,6.95-3.34,10.48-5.81,3.53-2.47,7.31-4.66,11.34-6.56,4.03-1.9,7.98-3.85,11.86-5.86,3.87-2,7.59-4.18,11.15-6.53,3.55-2.34,6.49-5.17,8.81-8.5-4.18-2.7-10.09-4.7-17.72-6-7.64-1.29-15.68-1.53-24.12-.71-8.45.83-16.68,2.88-24.7,6.14-8.02,3.27-14.61,8.26-19.77,14.99Z"/>
  </g>
</svg>