<?xml version="1.0" encoding="UTF-8"?>
<svg id="Layer_2" data-name="Layer 2" xmlns="http://www.w3.org/2000/svg" xmlns:xlink="http://www.w3.org/1999/xlink" viewBox="0 0 33.18 33.18">
  <defs>
    <style>
      .cls-1 {
        fill: url(#Degradado_sin_nombre_6);
      }
    </style>
    <linearGradient id="Degradado_sin_nombre_6" data-name="Degradado sin nombre 6" x1="4.86" y1="4.86" x2="28.32" y2="28.32" gradientUnits="userSpaceOnUse">
      <stop offset="0" stop-color="#ffe185"/>
      <stop offset=".21" stop-color="#ffbb36"/>
      <stop offset=".38" stop-color="#ff5176"/>
      <stop offset=".52" stop-color="#f63395"/>
      <stop offset=".74" stop-color="#a436d2"/>
      <stop offset="1" stop-color="#5f4eed"/>
    </linearGradient>
  </defs>
  <g id="ELEMENTS">
    <path class="cls-1" d="M16.59,0C7.43,0,0,7.43,0,16.59s7.43,16.59,16.59,16.59,16.59-7.43,16.59-16.59S25.75,0,16.59,0ZM26.64,20.6c0,3.33-2.71,6.04-6.04,6.04h-8.03c-3.33,0-6.04-2.71-6.04-6.04v-8.03c0-3.33,2.71-6.04,6.04-6.04h8.03c3.33,0,6.04,2.71,6.04,6.04v8.03ZM19.84,16.59c0,1.75-1.42,3.17-3.17,3.17s-3.17-1.42-3.17-3.17,1.42-3.17,3.17-3.17,3.17,1.42,3.17,3.17ZM20.6,8.42h-8.03c-2.29,0-4.15,1.86-4.15,4.15v8.03c0,2.29,1.86,4.15,4.15,4.15h8.03c2.29,0,4.15-1.86,4.15-4.15v-8.03c0-2.29-1.86-4.15-4.15-4.15ZM16.67,21.54c-2.73,0-4.95-2.22-4.95-4.95s2.22-4.95,4.95-4.95,4.95,2.22,4.95,4.95-2.22,4.95-4.95,4.95ZM21.91,12.48c-.65,0-1.18-.53-1.18-1.18s.53-1.18,1.18-1.18,1.18.53,1.18,1.18-.53,1.18-1.18,1.18Z"/>
  </g>
</svg>