<?xml version="1.0" encoding="UTF-8"?>
<svg id="Layer_2" data-name="Layer 2" xmlns="http://www.w3.org/2000/svg" xmlns:xlink="http://www.w3.org/1999/xlink" viewBox="0 0 33.18 33.18">
  <defs>
    <style>
      .cls-1 {
        fill: #fff;
      }

      .cls-2 {
        fill: url(#Degradado_sin_nombre_4);
      }
    </style>
    <radialGradient id="Degradado_sin_nombre_4" data-name="Degradado sin nombre 4" cx="9.01" cy="28.1" fx="9.01" fy="28.1" r="25.51" gradientUnits="userSpaceOnUse">
      <stop offset="0" stop-color="#09f"/>
      <stop offset=".6" stop-color="#a033ff"/>
      <stop offset=".9" stop-color="#ff5280"/>
      <stop offset="1" stop-color="#ff7061"/>
    </radialGradient>
  </defs>
  <g id="ELEMENTS">
    <g>
      <circle class="cls-2" cx="16.59" cy="16.59" r="16.59"/>
      <path class="cls-1" d="M16.59,6.99c-5.41,0-9.6,3.96-9.6,9.31,0,2.8,1.15,5.22,3.01,6.89.16.14.25.34.26.55l.05,1.71c.01.42.37.76.79.74.1,0,.2-.03.29-.07l1.91-.84c.16-.07.34-.08.51-.04.88.24,1.81.37,2.78.37,5.41,0,9.6-3.96,9.6-9.31s-4.19-9.31-9.6-9.31ZM22.35,14.15l-2.82,4.47c-.42.67-1.31.87-1.99.45-.03-.02-.07-.04-.1-.07l-2.24-1.68c-.21-.15-.49-.15-.69,0l-3.03,2.3c-.4.31-.93-.18-.66-.6l2.82-4.47c.42-.67,1.31-.87,1.99-.45.03.02.07.04.1.07l2.24,1.68c.21.15.49.15.69,0l3.03-2.3c.4-.31.93.18.66.61Z"/>
    </g>
  </g>
</svg>