<?xml version="1.0" encoding="UTF-8"?>
<svg id="Layer_2" data-name="Layer 2" xmlns="http://www.w3.org/2000/svg" xmlns:xlink="http://www.w3.org/1999/xlink" viewBox="0 0 33.18 33.18">
  <defs>
    <style>
      .cls-1 {
        fill: #fff;
      }

      .cls-2 {
        fill: url(#Degradado_sin_nombre_2);
      }
    </style>
    <linearGradient id="Degradado_sin_nombre_2" data-name="Degradado sin nombre 2" x1="28.32" y1="28.32" x2="4.86" y2="4.86" gradientUnits="userSpaceOnUse">
      <stop offset="0" stop-color="#fffa00"/>
      <stop offset="1" stop-color="#ffbb36"/>
    </linearGradient>
  </defs>
  <g id="ELEMENTS">
    <g>
      <circle class="cls-2" cx="16.59" cy="16.59" r="16.59"/>
      <g>
        <path class="cls-1" d="M16.59,27.56c-.89,0-1.78-.26-2.65-.76-.34-.2-.66-.42-.99-.63l-.41-.28c-.3-.2-.64-.32-1.05-.38-.15-.02-.29-.03-.44-.03-.34,0-.67.05-1.03.1-.17.02-.34.05-.52.07-.07,0-.13.01-.2.01-.63,0-1.06-.36-1.09-.92-.03-.47-.17-.65-.91-.73-.43-.05-.84-.22-1.17-.36-.56-.23-.93-.56-1.13-1.01l-.04-.1v-.64l.12-.14c.18-.21.42-.44.8-.52,1.5-.3,2.66-1.19,3.64-2.82.42-.69.41-.86.4-.9-.02-.05-.14-.18-.91-.46-.14-.05-.21-.07-.27-.09-.34-.14-.7-.3-1.01-.57-.41-.36-.58-.84-.46-1.32.13-.53.58-.94,1.16-1.09.12-.03.24-.04.37-.04.33,0,.63.1.89.19.13.04.25.09.37.11-.09-.9-.1-1.81-.05-2.91.09-2,1.07-3.6,2.82-4.64,1.22-.73,2.49-1.09,3.76-1.09s2.51.36,3.72,1.07c1.62.95,2.59,2.4,2.81,4.2.13,1.14.08,2.28,0,3.35.1-.03.2-.06.3-.09.29-.09.59-.18.93-.18.25,0,.48.05.71.15.56.25.92.75.91,1.29,0,.36-.19.73-.51,1-.33.29-.72.44-1.06.58-.19.08-.3.12-.41.16-.15.06-.3.11-.45.18-.23.11-.27.19-.27.19-.01.03,0,.12.07.26.93,1.95,2.16,3.05,3.89,3.46.39.09.69.27.9.56l.1.13v.63l-.05.1c-.23.47-.63.8-1.22,1.03l-.12.05c-.4.15-.8.31-1.27.34-.38.02-.49.12-.55.5-.07.5-.27,1.07-1.12,1.07-.08,0-.18,0-.29-.01-.15-.01-.29-.04-.43-.06-.36-.06-.66-.09-.93-.09-.78,0-1.43.22-1.99.68-.17.14-.36.26-.55.38l-.1.07c-.99.64-1.99.97-2.99.97Z"/>
        <path d="M16.59,6.12c1.16,0,2.32.33,3.46,1,1.43.84,2.36,2.12,2.56,3.82.13,1.11.08,2.23,0,3.34-.03.36.02.5.25.5.08,0,.17-.02.29-.04.42-.1.8-.28,1.2-.28.16,0,.33.03.51.11.33.14.62.46.61.82,0,.25-.15.47-.34.64-.28.25-.66.39-1,.53-.27.11-.55.19-.81.32-.54.25-.69.59-.44,1.12.87,1.85,2.16,3.25,4.23,3.73.25.06.46.16.61.37v.35c-.2.4-.55.63-.95.78-.41.15-.81.33-1.25.35-.6.04-.92.3-1.01.93-.07.51-.21.64-.63.64-.07,0-.16,0-.25-.01-.14-.01-.29-.04-.43-.06-.33-.06-.66-.09-.98-.09-.82,0-1.6.22-2.31.79-.19.15-.4.28-.61.42-.9.58-1.8.89-2.72.89-.79,0-1.59-.23-2.39-.7-.47-.28-.92-.6-1.38-.9-.38-.25-.79-.39-1.25-.46-.17-.03-.34-.04-.51-.04-.54,0-1.07.11-1.6.17-.05,0-.09,0-.14,0-.31,0-.57-.12-.59-.44-.05-.9-.6-1.12-1.36-1.2-.35-.04-.7-.18-1.03-.32-.36-.15-.69-.37-.87-.75v-.35c.14-.17.29-.31.52-.35,1.83-.36,3.05-1.53,3.97-3.05.77-1.28.65-1.58-.78-2.08-.08-.03-.17-.05-.25-.09-.31-.13-.61-.26-.87-.48-.64-.56-.26-1.36.49-1.54.09-.02.17-.03.25-.03.45,0,.86.26,1.31.32.05,0,.09,0,.13,0,.26,0,.37-.13.33-.47-.11-.98-.11-1.97-.06-2.95.09-1.88,1.01-3.31,2.57-4.23,1.15-.68,2.32-1.02,3.5-1.02M16.59,5.12c-1.36,0-2.71.39-4.01,1.16-1.9,1.13-2.96,2.87-3.06,5.05-.04.84-.04,1.57,0,2.24-.21-.06-.44-.11-.7-.11-.16,0-.33.02-.49.06-.77.19-1.36.74-1.53,1.45-.16.66.07,1.34.62,1.81.37.32.77.5,1.14.65.07.03.15.06.22.08l.07.02c.23.08.39.15.5.19-.05.1-.12.24-.24.43-.9,1.5-1.95,2.32-3.3,2.59-.54.11-.86.42-1.09.68l-.24.28v.93l.09.2c.25.56.71.98,1.39,1.26.36.15.81.34,1.31.39.32.03.42.08.45.1,0,0,.01.06.02.16.04.82.7,1.39,1.59,1.39.08,0,.17,0,.25-.01.18-.02.35-.04.53-.07.34-.05.66-.09.96-.09.13,0,.25,0,.36.03.34.05.61.15.85.31.14.09.27.18.4.27.33.22.67.45,1.02.65.95.55,1.92.83,2.9.83,1.1,0,2.19-.35,3.26-1.05l.11-.07c.18-.12.39-.25.58-.41.48-.39,1.01-.57,1.68-.57.25,0,.52.03.8.08.2.03.36.06.52.08.12,0,.23.02.33.02.93,0,1.47-.5,1.62-1.5,0-.03,0-.05.01-.07.02,0,.04,0,.07,0,.54-.03,1.01-.21,1.42-.37l.12-.05c.72-.27,1.21-.69,1.49-1.28l.1-.21v-.91l-.2-.27c-.28-.38-.67-.62-1.18-.74-1.52-.36-2.63-1.32-3.48-3.03.1-.04.2-.07.29-.11.12-.04.23-.09.35-.13l.08-.03c.36-.15.81-.33,1.2-.67.42-.36.67-.86.68-1.37.02-.74-.46-1.43-1.21-1.76-.29-.13-.6-.19-.91-.19-.25,0-.48.04-.68.09.05-.88.06-1.79-.05-2.72-.23-1.95-1.28-3.53-3.05-4.57-1.29-.76-2.63-1.14-3.97-1.14h0Z"/>
      </g>
    </g>
  </g>
</svg>