<?xml version="1.0" encoding="UTF-8"?>
<svg id="Layer_2" data-name="Layer 2" xmlns="http://www.w3.org/2000/svg" xmlns:xlink="http://www.w3.org/1999/xlink" viewBox="0 0 33.18 33.18">
  <defs>
    <style>
      .cls-1 {
        fill: #fff;
      }

      .cls-1, .cls-2, .cls-3 {
        fill-rule: evenodd;
      }

      .cls-2 {
        fill: #00c9d0;
      }

      .cls-3 {
        fill: #ff1753;
        opacity: .8;
      }

      .cls-4 {
        fill: url(#linear-gradient);
      }
    </style>
    <linearGradient id="linear-gradient" x1="0" y1="16.59" x2="33.18" y2="16.59" gradientUnits="userSpaceOnUse">
      <stop offset="0" stop-color="#23004a"/>
      <stop offset=".96" stop-color="#010003"/>
      <stop offset="1" stop-color="#000"/>
    </linearGradient>
  </defs>
  <g id="ELEMENTS">
    <g>
      <circle class="cls-4" cx="16.59" cy="16.59" r="16.59"/>
      <path class="cls-3" d="M22.08,13.3c1.48,1.06,3.3,1.68,5.26,1.68v-3.77c-.37,0-.74-.04-1.1-.12v2.97c-1.96,0-3.77-.62-5.26-1.68v7.69c0,3.85-3.12,6.97-6.97,6.97-1.44,0-2.77-.43-3.88-1.18,1.27,1.29,3.03,2.1,4.98,2.1,3.85,0,6.97-3.12,6.97-6.97v-7.69h0ZM23.44,9.49c-.76-.83-1.25-1.89-1.36-3.08v-.48h-1.05c.26,1.5,1.16,2.78,2.41,3.56h0ZM12.56,22.91c-.42-.55-.65-1.23-.65-1.93,0-1.76,1.43-3.19,3.19-3.19.33,0,.65.05.97.15v-3.85c-.37-.05-.73-.07-1.1-.06v3c-.31-.1-.64-.15-.97-.15-1.76,0-3.19,1.43-3.19,3.19,0,1.24.71,2.32,1.75,2.85Z"/>
      <path class="cls-1" d="M20.98,12.38c1.48,1.06,3.3,1.68,5.26,1.68v-2.97c-1.09-.23-2.06-.8-2.79-1.6-1.25-.78-2.14-2.06-2.41-3.56h-2.75v15.06c0,1.76-1.43,3.18-3.19,3.18-1.04,0-1.96-.49-2.54-1.26-1.04-.52-1.75-1.6-1.75-2.85,0-1.76,1.43-3.19,3.19-3.19.34,0,.66.05.97.15v-3c-3.78.08-6.82,3.17-6.82,6.97,0,1.9.76,3.62,1.99,4.87,1.11.74,2.44,1.18,3.88,1.18,3.85,0,6.97-3.12,6.97-6.97v-7.69Z"/>
      <path class="cls-2" d="M26.23,11.09v-.8c-.99,0-1.95-.27-2.79-.8.74.81,1.72,1.37,2.79,1.6ZM21.04,5.93c-.03-.14-.04-.29-.06-.43v-.48h-3.79v15.06c0,1.75-1.43,3.18-3.19,3.18-.52,0-1-.12-1.43-.34.58.76,1.5,1.26,2.54,1.26,1.76,0,3.18-1.42,3.19-3.18V5.93h2.75ZM14.96,14.02v-.85c-.32-.04-.64-.06-.96-.06-3.85,0-6.97,3.12-6.97,6.97,0,2.41,1.23,4.54,3.09,5.79-1.23-1.26-1.99-2.98-1.99-4.87,0-3.8,3.04-6.89,6.82-6.97h0Z"/>
    </g>
  </g>
</svg>